<mxfile host="app.diagrams.net" modified="2022-12-17T17:10:44.400Z" agent="5.0 (Windows NT 10.0; Win64; x64) AppleWebKit/537.36 (KHTML, like Gecko) Chrome/108.0.0.0 Safari/537.36" etag="SEezo-eY7mRzLsKgrxef" version="20.7.4" type="github">
  <diagram id="C5RBs43oDa-KdzZeNtuy" name="Page-1">
    <mxGraphModel dx="2261" dy="788" grid="1" gridSize="10" guides="1" tooltips="1" connect="1" arrows="1" fold="1" page="1" pageScale="1" pageWidth="827" pageHeight="1169" math="0" shadow="0">
      <root>
        <mxCell id="WIyWlLk6GJQsqaUBKTNV-0" />
        <mxCell id="WIyWlLk6GJQsqaUBKTNV-1" parent="WIyWlLk6GJQsqaUBKTNV-0" />
        <mxCell id="MG3YhlP0bR8ULW_-c63s-2" style="edgeStyle=orthogonalEdgeStyle;rounded=0;orthogonalLoop=1;jettySize=auto;html=1;" edge="1" parent="WIyWlLk6GJQsqaUBKTNV-1" source="MG3YhlP0bR8ULW_-c63s-0" target="MG3YhlP0bR8ULW_-c63s-1">
          <mxGeometry relative="1" as="geometry" />
        </mxCell>
        <mxCell id="MG3YhlP0bR8ULW_-c63s-0" value="Iniciar Pago&lt;br&gt;" style="strokeWidth=2;html=1;shape=mxgraph.flowchart.start_1;whiteSpace=wrap;" vertex="1" parent="WIyWlLk6GJQsqaUBKTNV-1">
          <mxGeometry x="330" y="10" width="100" height="60" as="geometry" />
        </mxCell>
        <mxCell id="MG3YhlP0bR8ULW_-c63s-4" style="edgeStyle=orthogonalEdgeStyle;rounded=0;orthogonalLoop=1;jettySize=auto;html=1;entryX=0.5;entryY=0;entryDx=0;entryDy=0;entryPerimeter=0;" edge="1" parent="WIyWlLk6GJQsqaUBKTNV-1" source="MG3YhlP0bR8ULW_-c63s-1" target="MG3YhlP0bR8ULW_-c63s-3">
          <mxGeometry relative="1" as="geometry" />
        </mxCell>
        <mxCell id="MG3YhlP0bR8ULW_-c63s-1" value="&lt;span data-lucid-content=&quot;{&amp;quot;t&amp;quot;:&amp;quot;Obtener Sistema de Factuacion ( \&amp;quot;SELECT eSistemaSIN_fl, sAutorizacionComision_num,sAutorizacionServicio_num\n      FROM  tbl_secuenciales\n      WHERE nuempr = ?\n        AND nusecu = ?\&amp;quot;,)&amp;quot;,&amp;quot;m&amp;quot;:[{&amp;quot;s&amp;quot;:0,&amp;quot;n&amp;quot;:&amp;quot;s&amp;quot;,&amp;quot;v&amp;quot;:22.22222222222222,&amp;quot;e&amp;quot;:31},{&amp;quot;s&amp;quot;:0,&amp;quot;n&amp;quot;:&amp;quot;c&amp;quot;,&amp;quot;v&amp;quot;:&amp;quot;3a414aff&amp;quot;,&amp;quot;e&amp;quot;:31},{&amp;quot;s&amp;quot;:29,&amp;quot;n&amp;quot;:&amp;quot;fc&amp;quot;,&amp;quot;v&amp;quot;:&amp;quot;Bold&amp;quot;,&amp;quot;e&amp;quot;:31},{&amp;quot;s&amp;quot;:29,&amp;quot;n&amp;quot;:&amp;quot;b&amp;quot;,&amp;quot;v&amp;quot;:true,&amp;quot;e&amp;quot;:31},{&amp;quot;s&amp;quot;:29,&amp;quot;n&amp;quot;:&amp;quot;fid&amp;quot;,&amp;quot;v&amp;quot;:5,&amp;quot;e&amp;quot;:31},{&amp;quot;s&amp;quot;:180,&amp;quot;n&amp;quot;:&amp;quot;fc&amp;quot;,&amp;quot;v&amp;quot;:&amp;quot;Regular&amp;quot;,&amp;quot;e&amp;quot;:185},{&amp;quot;s&amp;quot;:180,&amp;quot;n&amp;quot;:&amp;quot;fid&amp;quot;,&amp;quot;v&amp;quot;:2,&amp;quot;e&amp;quot;:185},{&amp;quot;s&amp;quot;:184,&amp;quot;n&amp;quot;:&amp;quot;s&amp;quot;,&amp;quot;v&amp;quot;:22.22222222222222,&amp;quot;e&amp;quot;:185},{&amp;quot;s&amp;quot;:184,&amp;quot;n&amp;quot;:&amp;quot;c&amp;quot;,&amp;quot;v&amp;quot;:&amp;quot;3a414aff&amp;quot;,&amp;quot;e&amp;quot;:185},{&amp;quot;s&amp;quot;:31,&amp;quot;n&amp;quot;:&amp;quot;c&amp;quot;,&amp;quot;v&amp;quot;:&amp;quot;#d4d4d4ff&amp;quot;,&amp;quot;e&amp;quot;:32},{&amp;quot;s&amp;quot;:32,&amp;quot;n&amp;quot;:&amp;quot;c&amp;quot;,&amp;quot;v&amp;quot;:&amp;quot;#ce9178ff&amp;quot;,&amp;quot;e&amp;quot;:33},{&amp;quot;s&amp;quot;:33,&amp;quot;n&amp;quot;:&amp;quot;c&amp;quot;,&amp;quot;v&amp;quot;:&amp;quot;#569cd6ff&amp;quot;,&amp;quot;e&amp;quot;:39},{&amp;quot;s&amp;quot;:39,&amp;quot;n&amp;quot;:&amp;quot;c&amp;quot;,&amp;quot;v&amp;quot;:&amp;quot;#ce9178ff&amp;quot;,&amp;quot;e&amp;quot;:107},{&amp;quot;s&amp;quot;:107,&amp;quot;n&amp;quot;:&amp;quot;c&amp;quot;,&amp;quot;v&amp;quot;:&amp;quot;#d4d4d4ff&amp;quot;,&amp;quot;e&amp;quot;:108},{&amp;quot;s&amp;quot;:108,&amp;quot;n&amp;quot;:&amp;quot;c&amp;quot;,&amp;quot;v&amp;quot;:&amp;quot;#ce9178ff&amp;quot;,&amp;quot;e&amp;quot;:114},{&amp;quot;s&amp;quot;:114,&amp;quot;n&amp;quot;:&amp;quot;c&amp;quot;,&amp;quot;v&amp;quot;:&amp;quot;#569cd6ff&amp;quot;,&amp;quot;e&amp;quot;:118},{&amp;quot;s&amp;quot;:118,&amp;quot;n&amp;quot;:&amp;quot;c&amp;quot;,&amp;quot;v&amp;quot;:&amp;quot;#ce9178ff&amp;quot;,&amp;quot;e&amp;quot;:136},{&amp;quot;s&amp;quot;:136,&amp;quot;n&amp;quot;:&amp;quot;c&amp;quot;,&amp;quot;v&amp;quot;:&amp;quot;#d4d4d4ff&amp;quot;,&amp;quot;e&amp;quot;:137},{&amp;quot;s&amp;quot;:137,&amp;quot;n&amp;quot;:&amp;quot;c&amp;quot;,&amp;quot;v&amp;quot;:&amp;quot;#ce9178ff&amp;quot;,&amp;quot;e&amp;quot;:143},{&amp;quot;s&amp;quot;:143,&amp;quot;n&amp;quot;:&amp;quot;c&amp;quot;,&amp;quot;v&amp;quot;:&amp;quot;#569cd6ff&amp;quot;,&amp;quot;e&amp;quot;:148},{&amp;quot;s&amp;quot;:148,&amp;quot;n&amp;quot;:&amp;quot;c&amp;quot;,&amp;quot;v&amp;quot;:&amp;quot;#ce9178ff&amp;quot;,&amp;quot;e&amp;quot;:156},{&amp;quot;s&amp;quot;:156,&amp;quot;n&amp;quot;:&amp;quot;c&amp;quot;,&amp;quot;v&amp;quot;:&amp;quot;#d4d4d4ff&amp;quot;,&amp;quot;e&amp;quot;:157},{&amp;quot;s&amp;quot;:157,&amp;quot;n&amp;quot;:&amp;quot;c&amp;quot;,&amp;quot;v&amp;quot;:&amp;quot;#ce9178ff&amp;quot;,&amp;quot;e&amp;quot;:159},{&amp;quot;s&amp;quot;:159,&amp;quot;n&amp;quot;:&amp;quot;c&amp;quot;,&amp;quot;v&amp;quot;:&amp;quot;#d4d4d4ff&amp;quot;,&amp;quot;e&amp;quot;:160},{&amp;quot;s&amp;quot;:160,&amp;quot;n&amp;quot;:&amp;quot;c&amp;quot;,&amp;quot;v&amp;quot;:&amp;quot;#ce9178ff&amp;quot;,&amp;quot;e&amp;quot;:168},{&amp;quot;s&amp;quot;:168,&amp;quot;n&amp;quot;:&amp;quot;c&amp;quot;,&amp;quot;v&amp;quot;:&amp;quot;#569cd6ff&amp;quot;,&amp;quot;e&amp;quot;:171},{&amp;quot;s&amp;quot;:171,&amp;quot;n&amp;quot;:&amp;quot;c&amp;quot;,&amp;quot;v&amp;quot;:&amp;quot;#ce9178ff&amp;quot;,&amp;quot;e&amp;quot;:179},{&amp;quot;s&amp;quot;:179,&amp;quot;n&amp;quot;:&amp;quot;c&amp;quot;,&amp;quot;v&amp;quot;:&amp;quot;#d4d4d4ff&amp;quot;,&amp;quot;e&amp;quot;:180},{&amp;quot;s&amp;quot;:180,&amp;quot;n&amp;quot;:&amp;quot;c&amp;quot;,&amp;quot;v&amp;quot;:&amp;quot;#ce9178ff&amp;quot;,&amp;quot;e&amp;quot;:183},{&amp;quot;s&amp;quot;:183,&amp;quot;n&amp;quot;:&amp;quot;c&amp;quot;,&amp;quot;v&amp;quot;:&amp;quot;#d4d4d4ff&amp;quot;,&amp;quot;e&amp;quot;:184},{&amp;quot;s&amp;quot;:31,&amp;quot;n&amp;quot;:&amp;quot;s&amp;quot;,&amp;quot;v&amp;quot;:18.666666666666668,&amp;quot;e&amp;quot;:184},{&amp;quot;s&amp;quot;:108,&amp;quot;n&amp;quot;:&amp;quot;p&amp;quot;,&amp;quot;v&amp;quot;:1.1309523809523812},{&amp;quot;s&amp;quot;:137,&amp;quot;n&amp;quot;:&amp;quot;p&amp;quot;,&amp;quot;v&amp;quot;:1.1309523809523812}]}&quot; data-lucid-type=&quot;application/vnd.lucid.text&quot;&gt;&lt;span style=&quot;color:#3a414a;font-size:16.666666666666664px;&quot;&gt;Obtener Sistema de Factuacion&lt;/span&gt;&lt;span style=&quot;font-weight:bold;color:#3a414a;font-size:16.666666666666664px;&quot;&gt; (&lt;/span&gt;&lt;span style=&quot;color:#d4d4d4;font-size:14px;&quot;&gt; &lt;/span&gt;&lt;span style=&quot;color:#ce9178;font-size:14px;&quot;&gt;&quot;&lt;/span&gt;&lt;span style=&quot;color:#569cd6;font-size:14px;&quot;&gt;SELECT&lt;/span&gt;&lt;span style=&quot;color:#ce9178;font-size:14px;&quot;&gt; eSistemaSIN_fl, sAutorizacionComision_num,sAutorizacionServicio_num&lt;/span&gt;&lt;span style=&quot;color:#d4d4d4;font-size:14px;&quot;&gt;&lt;br&gt;&lt;/span&gt;&lt;span style=&quot;color:#ce9178;font-size:14px;&quot;&gt;      &lt;/span&gt;&lt;span style=&quot;color:#569cd6;font-size:14px;&quot;&gt;FROM&lt;/span&gt;&lt;span style=&quot;color:#ce9178;font-size:14px;&quot;&gt;  tbl_secuenciales&lt;/span&gt;&lt;span style=&quot;color:#d4d4d4;font-size:14px;&quot;&gt;&lt;br&gt;&lt;/span&gt;&lt;span style=&quot;color:#ce9178;font-size:14px;&quot;&gt;      &lt;/span&gt;&lt;span style=&quot;color:#569cd6;font-size:14px;&quot;&gt;WHERE&lt;/span&gt;&lt;span style=&quot;color:#ce9178;font-size:14px;&quot;&gt; nuempr &lt;/span&gt;&lt;span style=&quot;color:#d4d4d4;font-size:14px;&quot;&gt;=&lt;/span&gt;&lt;span style=&quot;color:#ce9178;font-size:14px;&quot;&gt; ?&lt;/span&gt;&lt;span style=&quot;color:#d4d4d4;font-size:14px;&quot;&gt;&lt;br&gt;&lt;/span&gt;&lt;span style=&quot;color:#ce9178;font-size:14px;&quot;&gt;        &lt;/span&gt;&lt;span style=&quot;color:#569cd6;font-size:14px;&quot;&gt;AND&lt;/span&gt;&lt;span style=&quot;color:#ce9178;font-size:14px;&quot;&gt; nusecu &lt;/span&gt;&lt;span style=&quot;color:#d4d4d4;font-size:14px;&quot;&gt;=&lt;/span&gt;&lt;span style=&quot;color:#ce9178;font-size:14px;&quot;&gt; ?&quot;&lt;/span&gt;&lt;span style=&quot;color:#d4d4d4;font-size:14px;&quot;&gt;,&lt;/span&gt;&lt;span style=&quot;color:#3a414a;font-size:16.666666666666664px;&quot;&gt;)&lt;/span&gt;&lt;/span&gt;" style="rounded=1;whiteSpace=wrap;html=1;absoluteArcSize=1;arcSize=14;strokeWidth=2;" vertex="1" parent="WIyWlLk6GJQsqaUBKTNV-1">
          <mxGeometry x="190" y="90" width="380" height="110" as="geometry" />
        </mxCell>
        <mxCell id="MG3YhlP0bR8ULW_-c63s-7" value="" style="edgeStyle=orthogonalEdgeStyle;rounded=0;orthogonalLoop=1;jettySize=auto;html=1;" edge="1" parent="WIyWlLk6GJQsqaUBKTNV-1" source="MG3YhlP0bR8ULW_-c63s-3" target="MG3YhlP0bR8ULW_-c63s-6">
          <mxGeometry relative="1" as="geometry" />
        </mxCell>
        <mxCell id="MG3YhlP0bR8ULW_-c63s-8" value="SI" style="edgeLabel;html=1;align=center;verticalAlign=middle;resizable=0;points=[];" vertex="1" connectable="0" parent="MG3YhlP0bR8ULW_-c63s-7">
          <mxGeometry x="-0.2" relative="1" as="geometry">
            <mxPoint as="offset" />
          </mxGeometry>
        </mxCell>
        <mxCell id="MG3YhlP0bR8ULW_-c63s-12" value="NO" style="edgeStyle=orthogonalEdgeStyle;rounded=0;orthogonalLoop=1;jettySize=auto;html=1;entryX=1;entryY=0.5;entryDx=0;entryDy=0;entryPerimeter=0;" edge="1" parent="WIyWlLk6GJQsqaUBKTNV-1" source="MG3YhlP0bR8ULW_-c63s-3" target="MG3YhlP0bR8ULW_-c63s-14">
          <mxGeometry relative="1" as="geometry">
            <mxPoint x="210" y="300" as="targetPoint" />
          </mxGeometry>
        </mxCell>
        <mxCell id="MG3YhlP0bR8ULW_-c63s-3" value="&lt;span data-lucid-content=&quot;{&amp;quot;t&amp;quot;:&amp;quot;Validar Transaccion&amp;quot;,&amp;quot;m&amp;quot;:[{&amp;quot;s&amp;quot;:0,&amp;quot;n&amp;quot;:&amp;quot;s&amp;quot;,&amp;quot;v&amp;quot;:22.22222222222222,&amp;quot;e&amp;quot;:19},{&amp;quot;s&amp;quot;:0,&amp;quot;n&amp;quot;:&amp;quot;c&amp;quot;,&amp;quot;v&amp;quot;:&amp;quot;3a414aff&amp;quot;,&amp;quot;e&amp;quot;:19}]}&quot; data-lucid-type=&quot;application/vnd.lucid.text&quot;&gt;&lt;span style=&quot;color:#3a414a;font-size:16.666666666666664px;&quot;&gt;Validar Transaccion&lt;/span&gt;&lt;/span&gt;" style="strokeWidth=2;html=1;shape=mxgraph.flowchart.decision;whiteSpace=wrap;" vertex="1" parent="WIyWlLk6GJQsqaUBKTNV-1">
          <mxGeometry x="315" y="250" width="130" height="100" as="geometry" />
        </mxCell>
        <mxCell id="MG3YhlP0bR8ULW_-c63s-18" value="" style="edgeStyle=orthogonalEdgeStyle;rounded=0;orthogonalLoop=1;jettySize=auto;html=1;" edge="1" parent="WIyWlLk6GJQsqaUBKTNV-1" source="MG3YhlP0bR8ULW_-c63s-6" target="MG3YhlP0bR8ULW_-c63s-16">
          <mxGeometry relative="1" as="geometry" />
        </mxCell>
        <mxCell id="MG3YhlP0bR8ULW_-c63s-6" value="&lt;span data-lucid-content=&quot;{&amp;quot;t&amp;quot;:&amp;quot;Obtener Departamento Ciudad (iDepartamento_id, iCiudad_id, sCiudad_nm)&amp;quot;,&amp;quot;m&amp;quot;:[{&amp;quot;s&amp;quot;:0,&amp;quot;n&amp;quot;:&amp;quot;s&amp;quot;,&amp;quot;v&amp;quot;:22.22222222222222,&amp;quot;e&amp;quot;:29},{&amp;quot;s&amp;quot;:0,&amp;quot;n&amp;quot;:&amp;quot;c&amp;quot;,&amp;quot;v&amp;quot;:&amp;quot;3a414aff&amp;quot;,&amp;quot;e&amp;quot;:29},{&amp;quot;s&amp;quot;:29,&amp;quot;n&amp;quot;:&amp;quot;c&amp;quot;,&amp;quot;v&amp;quot;:&amp;quot;#ce9178ff&amp;quot;,&amp;quot;e&amp;quot;:45},{&amp;quot;s&amp;quot;:47,&amp;quot;n&amp;quot;:&amp;quot;c&amp;quot;,&amp;quot;v&amp;quot;:&amp;quot;#ce9178ff&amp;quot;,&amp;quot;e&amp;quot;:57},{&amp;quot;s&amp;quot;:45,&amp;quot;n&amp;quot;:&amp;quot;c&amp;quot;,&amp;quot;v&amp;quot;:&amp;quot;#ce9178ff&amp;quot;,&amp;quot;e&amp;quot;:47},{&amp;quot;s&amp;quot;:69,&amp;quot;n&amp;quot;:&amp;quot;s&amp;quot;,&amp;quot;v&amp;quot;:22.22222222222222,&amp;quot;e&amp;quot;:70},{&amp;quot;s&amp;quot;:69,&amp;quot;n&amp;quot;:&amp;quot;c&amp;quot;,&amp;quot;v&amp;quot;:&amp;quot;3a414aff&amp;quot;,&amp;quot;e&amp;quot;:70},{&amp;quot;s&amp;quot;:57,&amp;quot;n&amp;quot;:&amp;quot;c&amp;quot;,&amp;quot;v&amp;quot;:&amp;quot;#ce9178ff&amp;quot;,&amp;quot;e&amp;quot;:69},{&amp;quot;s&amp;quot;:29,&amp;quot;n&amp;quot;:&amp;quot;s&amp;quot;,&amp;quot;v&amp;quot;:18.666666666666668,&amp;quot;e&amp;quot;:69}]}&quot; data-lucid-type=&quot;application/vnd.lucid.text&quot;&gt;&lt;span style=&quot;color:#3a414a;font-size:16.666666666666664px;&quot;&gt;Obtener Departamento Ciudad (&lt;/span&gt;&lt;span style=&quot;color:#ce9178;font-size:14px;&quot;&gt;iDepartamento_id, iCiudad_id, sCiudad_nm&lt;/span&gt;&lt;span style=&quot;color:#3a414a;font-size:16.666666666666664px;&quot;&gt;)&lt;/span&gt;&lt;/span&gt;" style="whiteSpace=wrap;html=1;strokeWidth=2;" vertex="1" parent="WIyWlLk6GJQsqaUBKTNV-1">
          <mxGeometry x="235" y="400" width="290" height="60" as="geometry" />
        </mxCell>
        <mxCell id="MG3YhlP0bR8ULW_-c63s-14" value="&lt;span data-lucid-content=&quot;{&amp;quot;t&amp;quot;:&amp;quot;Pago no procesado&amp;quot;,&amp;quot;m&amp;quot;:[{&amp;quot;s&amp;quot;:0,&amp;quot;n&amp;quot;:&amp;quot;s&amp;quot;,&amp;quot;v&amp;quot;:22.22222222222222,&amp;quot;e&amp;quot;:17},{&amp;quot;s&amp;quot;:0,&amp;quot;n&amp;quot;:&amp;quot;c&amp;quot;,&amp;quot;v&amp;quot;:&amp;quot;3a414aff&amp;quot;,&amp;quot;e&amp;quot;:17}]}&quot; data-lucid-type=&quot;application/vnd.lucid.text&quot;&gt;&lt;span style=&quot;color:#3a414a;font-size:16.666666666666664px;&quot;&gt;Pago no procesado&lt;/span&gt;&lt;/span&gt;" style="strokeWidth=2;html=1;shape=mxgraph.flowchart.terminator;whiteSpace=wrap;" vertex="1" parent="WIyWlLk6GJQsqaUBKTNV-1">
          <mxGeometry x="110" y="270" width="100" height="60" as="geometry" />
        </mxCell>
        <mxCell id="MG3YhlP0bR8ULW_-c63s-20" style="edgeStyle=orthogonalEdgeStyle;rounded=0;orthogonalLoop=1;jettySize=auto;html=1;entryX=0.5;entryY=0;entryDx=0;entryDy=0;entryPerimeter=0;" edge="1" parent="WIyWlLk6GJQsqaUBKTNV-1" source="MG3YhlP0bR8ULW_-c63s-16" target="MG3YhlP0bR8ULW_-c63s-19">
          <mxGeometry relative="1" as="geometry" />
        </mxCell>
        <mxCell id="MG3YhlP0bR8ULW_-c63s-16" value="&lt;span data-lucid-content=&quot;{&amp;quot;t&amp;quot;:&amp;quot;Obtener Usuario Transaccion (,iCiudad_id,sCiudad_nm,sAgente_nm,sAgencia_nm,iAgente_id,iAgencia_id,sUsuario_nm,iUsuario_id)&amp;quot;,&amp;quot;m&amp;quot;:[{&amp;quot;s&amp;quot;:0,&amp;quot;n&amp;quot;:&amp;quot;s&amp;quot;,&amp;quot;v&amp;quot;:22.22222222222222,&amp;quot;e&amp;quot;:122},{&amp;quot;s&amp;quot;:0,&amp;quot;n&amp;quot;:&amp;quot;c&amp;quot;,&amp;quot;v&amp;quot;:&amp;quot;3a414aff&amp;quot;,&amp;quot;e&amp;quot;:122}]}&quot; data-lucid-type=&quot;application/vnd.lucid.text&quot;&gt;&lt;span style=&quot;color:#3a414a;font-size:16.666666666666664px;&quot;&gt;Obtener Usuario Transaccion (,iCiudad_id,sCiudad_nm,sAgente_nm,sAgencia_nm,iAgente_id,iAgencia_id,sUsuario_nm,iUsuario_id)&lt;/span&gt;&lt;/span&gt;" style="whiteSpace=wrap;html=1;strokeWidth=2;" vertex="1" parent="WIyWlLk6GJQsqaUBKTNV-1">
          <mxGeometry x="-210" y="500" width="1180" height="60" as="geometry" />
        </mxCell>
        <mxCell id="MG3YhlP0bR8ULW_-c63s-21" style="edgeStyle=orthogonalEdgeStyle;rounded=0;orthogonalLoop=1;jettySize=auto;html=1;" edge="1" parent="WIyWlLk6GJQsqaUBKTNV-1" source="MG3YhlP0bR8ULW_-c63s-19">
          <mxGeometry relative="1" as="geometry">
            <mxPoint x="380" y="710" as="targetPoint" />
          </mxGeometry>
        </mxCell>
        <mxCell id="MG3YhlP0bR8ULW_-c63s-19" value="&lt;span data-lucid-content=&quot;{&amp;quot;t&amp;quot;:&amp;quot;Recorrer Detalle Pago  detallePagos  &amp;quot;,&amp;quot;m&amp;quot;:[{&amp;quot;s&amp;quot;:0,&amp;quot;n&amp;quot;:&amp;quot;s&amp;quot;,&amp;quot;v&amp;quot;:22.22222222222222,&amp;quot;e&amp;quot;:23},{&amp;quot;s&amp;quot;:0,&amp;quot;n&amp;quot;:&amp;quot;c&amp;quot;,&amp;quot;v&amp;quot;:&amp;quot;3a414aff&amp;quot;,&amp;quot;e&amp;quot;:23},{&amp;quot;s&amp;quot;:23,&amp;quot;n&amp;quot;:&amp;quot;c&amp;quot;,&amp;quot;v&amp;quot;:&amp;quot;#ce9178ff&amp;quot;,&amp;quot;e&amp;quot;:36},{&amp;quot;s&amp;quot;:23,&amp;quot;n&amp;quot;:&amp;quot;s&amp;quot;,&amp;quot;v&amp;quot;:18.666666666666668,&amp;quot;e&amp;quot;:36},{&amp;quot;s&amp;quot;:36,&amp;quot;n&amp;quot;:&amp;quot;s&amp;quot;,&amp;quot;v&amp;quot;:22.22222222222222,&amp;quot;e&amp;quot;:37},{&amp;quot;s&amp;quot;:36,&amp;quot;n&amp;quot;:&amp;quot;c&amp;quot;,&amp;quot;v&amp;quot;:&amp;quot;3a414aff&amp;quot;,&amp;quot;e&amp;quot;:37}]}&quot; data-lucid-type=&quot;application/vnd.lucid.text&quot;&gt;&lt;span style=&quot;color:#3a414a;font-size:16.666666666666664px;&quot;&gt;Recorrer Detalle Pago &lt;/span&gt;&lt;span style=&quot;color:#ce9178;font-size:14px;&quot;&gt;detallePagos&amp;nbsp;&lt;/span&gt;&lt;/span&gt;" style="strokeWidth=2;html=1;shape=mxgraph.flowchart.loop_limit;whiteSpace=wrap;" vertex="1" parent="WIyWlLk6GJQsqaUBKTNV-1">
          <mxGeometry x="145" y="610" width="470" height="60" as="geometry" />
        </mxCell>
        <mxCell id="MG3YhlP0bR8ULW_-c63s-23" value="Se Factura el Servicio&lt;br&gt;" style="strokeWidth=2;html=1;shape=mxgraph.flowchart.decision;whiteSpace=wrap;" vertex="1" parent="WIyWlLk6GJQsqaUBKTNV-1">
          <mxGeometry x="330" y="710" width="100" height="100" as="geometry" />
        </mxCell>
      </root>
    </mxGraphModel>
  </diagram>
</mxfile>
